<svg id="Capa_1" data-name="Capa 1" xmlns="http://www.w3.org/2000/svg" viewBox="0 0 569.56 228.82"><defs><style>.cls-1{fill:#004a97}.cls-2{fill:#cf0a2c}.cls-3{fill:#e2231a}</style></defs><title>Logo Chileautos nuevo vectorizado[1]</title><path class="cls-1" d="M38.06 259.61H23.41v-28.23h14.65v3.76H27.5v8.43h10.56v3.68H27.5v8.45h10.56zm9.18 0v-28.23H51v28.23zM79.43 257v9.48h-3.84v-28.2h3.88v2.62a10.26 10.26 0 0 1 3.29-2.3 9.62 9.62 0 0 1 3.87-.79A10.9 10.9 0 0 1 97.81 249a11.48 11.48 0 0 1-.79 4.25 11 11 0 0 1-2.29 3.59 10.51 10.51 0 0 1-3.52 2.49 11.12 11.12 0 0 1-4.35.8 10.2 10.2 0 0 1-4-.79 10.58 10.58 0 0 1-3.43-2.34zm-.12-8.22a7.53 7.53 0 0 0 2.12 5.39 6.76 6.76 0 0 0 5.07 2.23 7.33 7.33 0 0 0 7.31-7.35 7.48 7.48 0 0 0-2.13-5.43 7 7 0 0 0-5.21-2.19 6.8 6.8 0 0 0-5 2.2 7.11 7.11 0 0 0-2.16 5.18zm25.09.22a11.58 11.58 0 0 1 .77-4.24 10.76 10.76 0 0 1 2.26-3.54 11.55 11.55 0 0 1 3.63-2.66 9.89 9.89 0 0 1 4.19-.93 10.77 10.77 0 0 1 7.91 3.3 11.53 11.53 0 0 1 2.41 3.63 10.7 10.7 0 0 1 .84 4.17 12 12 0 0 1-.79 4.26 11.39 11.39 0 0 1-5.85 6.33 10.3 10.3 0 0 1-4.31.92 10.9 10.9 0 0 1-4.32-.84 10.64 10.64 0 0 1-3.55-2.49 11.52 11.52 0 0 1-2.34-3.65 11.25 11.25 0 0 1-.85-4.26zm4 0a7.43 7.43 0 0 0 2 5.33 6.68 6.68 0 0 0 5 2.13 6.54 6.54 0 0 0 5-2.14 7.53 7.53 0 0 0 2-5.36 7.46 7.46 0 0 0-2-5.35 7 7 0 0 0-10 0 7.49 7.49 0 0 0-2.02 5.32zm29.55 10.61h-3.84v-21.33h3.61v2.46a6.46 6.46 0 0 1 2.18-2.1 5.92 5.92 0 0 1 2.86-.71v4a5.11 5.11 0 0 0-3.69 1.52 6.62 6.62 0 0 0-1.11 4.27zm14 0v-17.84h-3v-3.49h3v-6.9h3.82v6.9h3v3.49h-3v17.83zm31.21 0V257a10.12 10.12 0 0 1-3.29 2.32 9.62 9.62 0 0 1-3.87.79 10.78 10.78 0 0 1-8-3.21 11 11 0 0 1-3.18-8 11.51 11.51 0 0 1 .79-4.26 10.74 10.74 0 0 1 2.27-3.55 10.5 10.5 0 0 1 3.52-2.49 11.13 11.13 0 0 1 4.35-.8 10.29 10.29 0 0 1 4 .78 10.08 10.08 0 0 1 3.35 2.35v-2.58h3.9v21.32zm-14.35-10.8a7.46 7.46 0 0 0 2.14 5.43 7 7 0 0 0 5.24 2.19 6.8 6.8 0 0 0 5-2.2 7.11 7.11 0 0 0 2.16-5.15 7.51 7.51 0 0 0-2.14-5.38 6.81 6.81 0 0 0-5.09-2.24 7.3 7.3 0 0 0-7.31 7.35zm27.06 10.8v-28.23h3.8v28.23zm32.75 0h-4.09v-28.23h4.21l13.86 21.36-.19-21.36h4v28.23h-3.92l-14.17-22zm31.19-28.23a5.34 5.34 0 0 1 3.92 1.64 5.4 5.4 0 0 1 1.64 4 5.33 5.33 0 0 1-1.63 3.93 5.58 5.58 0 1 1-3.93-9.53zm3.73 5.54a3.68 3.68 0 0 0-3.72-3.72 3.69 3.69 0 0 0-2.68 1.08 3.56 3.56 0 0 0-1.1 2.64 3.78 3.78 0 0 0 3.78 3.78 3.54 3.54 0 0 0 2.65-1.11 3.7 3.7 0 0 0 1.07-2.66zm20.94 22.69h-4.13v-24.89h-4.92v-3.33h9.05zm48.52 0V257a10.13 10.13 0 0 1-3.29 2.32 9.62 9.62 0 0 1-3.87.79 10.78 10.78 0 0 1-8-3.21 11 11 0 0 1-3.18-8 11.51 11.51 0 0 1 .79-4.26 10.74 10.74 0 0 1 2.27-3.55 10.52 10.52 0 0 1 3.52-2.49 11.13 11.13 0 0 1 4.35-.8 10.31 10.31 0 0 1 4 .78 10.47 10.47 0 0 1 3.4 2.35v-9.48h3.84v28.23zm-14.35-10.8a7.46 7.46 0 0 0 2.14 5.43 7 7 0 0 0 5.24 2.19 6.8 6.8 0 0 0 5-2.2 7.11 7.11 0 0 0 2.16-5.15 7.51 7.51 0 0 0-2.19-5.38 6.81 6.81 0 0 0-5.09-2.24 7.3 7.3 0 0 0-7.31 7.35zm29.9 1.55a7.21 7.21 0 0 0 2.41 4.33 6.81 6.81 0 0 0 4.58 1.66 6.65 6.65 0 0 0 6-3.49h4.32a12.17 12.17 0 0 1-4.12 5.43 10.35 10.35 0 0 1-6.15 1.88 10.93 10.93 0 0 1-4.32-.83 10.63 10.63 0 0 1-3.55-2.5 11.52 11.52 0 0 1-2.34-3.65 11.26 11.26 0 0 1-.84-4.25 11.44 11.44 0 0 1 .77-4.21 11.22 11.22 0 0 1 2.26-3.57 10.36 10.36 0 0 1 7.95-3.51 10.79 10.79 0 0 1 5.22 1.31 11.11 11.11 0 0 1 4 3.65 10.9 10.9 0 0 1 1.38 3.19 16 16 0 0 1 .45 4v.6zm13.74-3.45a7.71 7.71 0 0 0-2.48-4.08 6.46 6.46 0 0 0-4.23-1.44 6.78 6.78 0 0 0-4.37 1.48 7.55 7.55 0 0 0-2.55 4zm36.44 12.7h-2.89l-8.1-21.32h4.13l5.6 15.57 5.76-15.57h4.05zm18.07-9.25a7.21 7.21 0 0 0 2.41 4.33 6.81 6.81 0 0 0 4.58 1.66 6.65 6.65 0 0 0 6-3.49h4.32a12.17 12.17 0 0 1-4.12 5.43 10.35 10.35 0 0 1-6.15 1.88 10.93 10.93 0 0 1-4.32-.83 10.63 10.63 0 0 1-3.55-2.5 11.52 11.52 0 0 1-2.34-3.65 11.26 11.26 0 0 1-.84-4.25 11.44 11.44 0 0 1 .77-4.21 11.22 11.22 0 0 1 2.26-3.57 10.36 10.36 0 0 1 7.95-3.51 10.79 10.79 0 0 1 5.22 1.31 11.11 11.11 0 0 1 4 3.65 10.9 10.9 0 0 1 1.38 3.19 16 16 0 0 1 .45 4v.6zm13.74-3.45a7.71 7.71 0 0 0-2.48-4.08 6.46 6.46 0 0 0-4.23-1.44 6.78 6.78 0 0 0-4.37 1.48 7.55 7.55 0 0 0-2.55 4zm15.75 12.7h-3.84v-28.23h3.84v9.33a5.9 5.9 0 0 1 2.41-2.08 8.06 8.06 0 0 1 3.46-.7 7.55 7.55 0 0 1 6 2.48 10.29 10.29 0 0 1 2.15 7v12.23h-3.84v-11a9.3 9.3 0 0 0-1.2-5.27 4.19 4.19 0 0 0-3.68-1.73 5.1 5.1 0 0 0-2.67.7 5 5 0 0 0-1.86 2 6.14 6.14 0 0 0-.61 1.94 25.45 25.45 0 0 0-.18 3.64zm22.12-24.06l4-6.75h3.9l-5.53 6.75zm.83 24.06v-21.33H473v21.32zm32.99-7.27a12 12 0 0 1-4 5.84 10.35 10.35 0 0 1-6.42 2 11 11 0 0 1-4.32-.82 10.5 10.5 0 0 1-3.51-2.47 11.52 11.52 0 0 1-2.34-3.65 11.4 11.4 0 0 1 5.88-14.67 10.73 10.73 0 0 1 4.4-.91 10.29 10.29 0 0 1 6.36 2 11.4 11.4 0 0 1 3.92 5.69H498a6.68 6.68 0 0 0-6.4-3.9 6.34 6.34 0 0 0-4.84 2.15 7.53 7.53 0 0 0-2 5.31 7.46 7.46 0 0 0 2 5.33 6.63 6.63 0 0 0 5 2.13 6.56 6.56 0 0 0 3.64-1.06 7 7 0 0 0 2.54-3zm25.96 7.27h-3.68v-2.38a7.58 7.58 0 0 1-2.57 2.16 7.08 7.08 0 0 1-3.19.71 7.89 7.89 0 0 1-6.24-2.5q-2.21-2.5-2.21-7v-12.32h3.84v11.17a9 9 0 0 0 1.22 5.18 4.19 4.19 0 0 0 3.66 1.73 5.15 5.15 0 0 0 2.7-.71 5 5 0 0 0 1.88-2 6.4 6.4 0 0 0 .61-1.94 25 25 0 0 0 .18-3.62v-9.77h3.8zm9.02 0v-28.23H541v28.23zm11.5-10.61a11.57 11.57 0 0 1 .77-4.24 10.77 10.77 0 0 1 2.26-3.54 11.54 11.54 0 0 1 3.63-2.66 9.88 9.88 0 0 1 4.19-.93 10.77 10.77 0 0 1 7.91 3.3 11.52 11.52 0 0 1 2.41 3.63 10.7 10.7 0 0 1 .84 4.17 12 12 0 0 1-.79 4.26 11.39 11.39 0 0 1-5.85 6.33 10.3 10.3 0 0 1-4.31.92 10.9 10.9 0 0 1-4.32-.84 10.64 10.64 0 0 1-3.55-2.49 11.49 11.49 0 0 1-2.34-3.65 11.24 11.24 0 0 1-.85-4.26zm4 0a7.43 7.43 0 0 0 2 5.33 6.68 6.68 0 0 0 5 2.13 6.54 6.54 0 0 0 5-2.14 7.54 7.54 0 0 0 2-5.36 7.46 7.46 0 0 0-2-5.35 7 7 0 0 0-10 0 7.49 7.49 0 0 0-2.03 5.32zm24.19 3.71h3.61a4.12 4.12 0 0 0 .94 2.78 3 3 0 0 0 2.36 1.09 3.06 3.06 0 0 0 2.2-.82 2.78 2.78 0 0 0 .86-2.1 3 3 0 0 0-.61-1.9 4.64 4.64 0 0 0-2-1.32q-.47-.19-1.32-.5a12.43 12.43 0 0 1-2.89-1.36 5.82 5.82 0 0 1-1.69-2.06 6.2 6.2 0 0 1-.54-2.67 6.21 6.21 0 0 1 6.24-6.24 5.89 5.89 0 0 1 4.34 1.6 6.57 6.57 0 0 1 1.76 4.49h-3.68a2.79 2.79 0 0 0-.78-1.84 2.5 2.5 0 0 0-1.82-.66 2.3 2.3 0 0 0-1.72.71 2.42 2.42 0 0 0-.69 1.75q0 1.78 3.1 2.93l1.38.52a7.61 7.61 0 0 1 3.48 2.46 6.71 6.71 0 0 1 1 3.94 6.4 6.4 0 0 1-1.94 4.77 6.69 6.69 0 0 1-4.88 1.9 6.17 6.17 0 0 1-4.79-2 8.46 8.46 0 0 1-1.92-5.47zm-452.16-38.14v-30.62c0-4.37 0-17.61-14.06-17.61-8.84 0-14.85 6.21-14.85 17.51v30.72H85.26v-75.19h10.58v24.81H96c5.08-7.53 13.53-7.53 15.75-7.53 8.76 0 15.88 3.76 20 10.07 2.23 3.66 3.47 8.15 3.54 14.45v33.36z" transform="translate(-20.95 -37.69)"/><path class="cls-2" d="M140.06 101.71h10.58v75.2h-10.58zm417.99 0h10.58v75.2h-10.58z"/><path class="cls-2" d="M153.61 151.54H143v-12.4h10.58zm0 62.81H143V158h10.58zM188.72 191c2.63 10.82 11.32 15.26 18.41 15.26a17.91 17.91 0 0 0 16-9.4h10.52a28.57 28.57 0 0 1-26.9 19c-15.87 0-28.51-13.65-28.51-29.53 0-16.78 12.94-29.43 28.72-29.43a28.72 28.72 0 0 1 28.51 28.73c0 1.82-.2 4.65-.3 5.36zm36.2-8.09c-.51-8.19-8-16.38-18.1-16.38s-17.6 8.19-18.1 16.38zM65.55 177c-1.69-3.52-5.75-10.5-15.71-10.5-13.57 0-18.39 11.29-18.39 19.79 0 9.69 6.12 19.88 18.17 19.88a16.85 16.85 0 0 0 15.83-10.3H77.2a28.7 28.7 0 0 1-27.59 19.93c-18.36 0-28.67-15-28.67-29.47 0-15.17 11.11-29.37 28.76-29.37 15.85.04 25.38 11.8 27.5 20.04zm495.15 0c-1.69-3.52-5.75-10.5-15.71-10.5-13.58 0-18.39 11.29-18.39 19.79 0 9.69 6.12 19.88 18.17 19.88a16.85 16.85 0 0 0 15.83-10.3h11.75a28.7 28.7 0 0 1-27.58 19.89c-18.36 0-28.67-15-28.67-29.47 0-15.17 11.11-29.37 28.76-29.37 15.84 0 25.37 11.79 27.49 20.07zm-269.9 37.33v-8.69h-.19c-4 6.88-11.4 10.12-19 10.12-18.86 0-29.67-14.45-29.67-29.17 0-13.66 9.58-29.68 29.67-29.68 7.8 0 15 3.2 19 9.36h.19v-7.86h10.48v55.92zm-19.2-47.85c-12.92 0-19.17 11.22-19.17 20 0 10.12 8 19.7 19.06 19.7A19.56 19.56 0 0 0 291 186.46c0-11.9-8.58-20-19.4-20" transform="translate(-20.95 -37.69)"/><path class="cls-1" d="M422 215.76c-18.79 0-30.2-15.65-30.2-29.81 0-15.23 12.81-29 30.2-29 17 0 30.17 13.3 30.17 29.25 0 13.63-11.21 29.6-30.17 29.6m0-49.28a19.84 19.84 0 1 0 19.7 19.68 19.72 19.72 0 0 0-19.7-19.72" transform="translate(-20.95 -37.69)"/><path class="cls-2" d="M318.47 158.41v30.28c0 13.84 6.15 17.47 13.93 17.47 8.68 0 14.63-5.55 14.63-17.77v-30h10.51v55.92H348v-6.08h-.21c-2.82 4.87-9.41 7.51-16.45 7.51a23.92 23.92 0 0 1-15.95-5.54c-4.66-4.06-7.37-10.3-7.37-21.53v-30.26zm147.99 14.31c.11-2.27 2-6.82 8.79-6.82a9.37 9.37 0 0 1 9.35 7.65h10.19c0-4.37-4.5-16.69-19.46-16.69s-18.4 10.55-18.63 15.45c-.82 18.2 29.29 15 28.78 26.78-.1 2.2-2.23 7.49-10.9 7.49a11 11 0 0 1-11.38-9.86h-10.09c.55 5.49 4.5 19 21.6 19s20.35-12.09 20.52-16.58c.85-19-29.15-17.81-28.77-26.46" transform="translate(-20.95 -37.69)"/><path class="cls-3" d="M510.91 208.35a6.32 6.32 0 0 1-12.64 0 6.32 6.32 0 1 1 12.64 0" transform="translate(-20.95 -37.69)"/><path class="cls-2" d="M361.63 176.65h-10.49v-46.31h-9.09v-9.58h9.09v-18.77h10.49v18.77h9.18v9.58h-9.18v46.31z"/><path class="cls-1" d="M499.82 147.37c-43.23-39.59-119.78-43-120.52-43l-3.45-.09-2.54-2.28c-.49-.44-50.37-45.54-119.57-45.54-82.54 0-138.59 61.79-139.15 62.43l-3.14 3.44-87.57-8.44 2.76-18.28 77.35 7.2c14-14 69.67-65.13 149.76-65.13 68.07 0 117.74 38.37 129.49 48.16 16.21 1 85.34 7.61 128.75 47.34z" transform="translate(-20.95 -37.69)"/></svg>